<?xml version="1.0" encoding="UTF-8" standalone="no"?>
<!DOCTYPE svg PUBLIC "-//W3C//DTD SVG 1.1//EN" "http://www.w3.org/Graphics/SVG/1.1/DTD/svg11.dtd">
<svg width="100%" height="100%" viewBox="0 0 358 455" version="1.1" xmlns="http://www.w3.org/2000/svg" xmlns:xlink="http://www.w3.org/1999/xlink" xml:space="preserve" xmlns:serif="http://www.serif.com/" style="fill-rule:evenodd;clip-rule:evenodd;stroke-linejoin:round;stroke-miterlimit:2;">
    <g transform="matrix(1,0,0,1,-203.473,-72.4018)">
        <path d="M399.569,72.402C392.585,140.211 388.845,203.75 424.675,228.134C450.02,245.382 500.202,172.711 500.202,172.711C500.202,172.711 457.843,255.385 472.786,299.735C483.474,331.452 502.398,336.807 515.073,335.058C543.175,331.179 555.537,258.85 555.537,258.85C555.537,258.85 576.873,372.297 522.437,425.958C415.646,531.231 359.3,526.541 359.3,526.541C359.3,526.541 413.155,391.349 384.423,361.868C358.521,335.29 300.224,227.782 307.324,191.356C314.426,154.92 399.569,72.402 399.569,72.402Z" style="fill:rgb(136,223,251);"/>
    </g>
    <g transform="matrix(1,0,0,1,-203.473,-72.4018)">
        <path d="M295.909,203.614C295.909,203.614 285.49,256.435 254.292,272.863C233.765,283.672 205.702,220.198 203.551,225.309C202.089,228.783 221.491,273.089 226.602,308.681C231.646,343.809 240.62,386.263 244.7,404.734C255.77,454.851 346.679,526.541 346.679,526.541C346.679,526.541 399.783,401.744 374.719,371.626C330.419,318.392 290.126,210.367 295.909,203.614Z" style="fill:rgb(46,165,255);"/>
    </g>
</svg>
