  <svg
    xmlns:dc="http://purl.org/dc/elements/1.1/"
    xmlns:cc="http://creativecommons.org/ns#"
    xmlns:rdf="http://www.w3.org/1999/02/22-rdf-syntax-ns#"
    xmlns:svg="http://www.w3.org/2000/svg"
    xmlns="http://www.w3.org/2000/svg"
    id="svg4643"
    preserveAspectRatio="xMidYMid meet"
    viewBox="0 0 57.000000 89.000000"
    height="89.000000pt"
    width="57.000000pt"
    version="1.0"
  >
    <metadata id="metadata4637">
      Created by potrace 1.14, written by Peter Selinger 2001-2017
      <rdf:RDF>
        <cc:Work rdf:about="">
          <dc:format>image/svg+xml</dc:format>
          <dc:type rdf:resource="http://purl.org/dc/dcmitype/StillImage" />
          <dc:title />
        </cc:Work>
      </rdf:RDF>
    </metadata>
    <path
      d="m 18.4003,8.5 c -6.200004,4.2 -7.028998,12.826832 -1.70069,18.399903 l 2.2002,2.301269 -3.7002,3.599121 c -3.789836,3.686309 -4.964058,6.336612 -4.699065,10.850458 0.264994,4.513847 4.051439,9.317775 11.777215,14.917609 11.822406,8.569173 12.521169,9.301772 12.60059,12.200683 0.06667,2.433345 -1.869571,5.028278 -3.7002,6.09961 -4.036074,2.362018 -9.660714,0.1086 -8.60009,-4.899902 0.739456,-3.491875 -1.0001,-6 -4.1001,-6 -4.2,0 -6.010204,4.604751 -3.60059,9.099609 2.790395,5.205162 15.9001,6.800098 22.1001,2.600098 6.2,-4.2 7.030785,-12.828549 1.70068,-18.399902 l -2.20022,-2.299805 3.7002,-3.600586 c 3.430172,-3.337827 4.6235,-5.909766 4.82994,-10.28093 C 45.21451,38.71607 41.396522,33.61222 33.09996,27.600098 21.276585,19.032262 20.555124,18.300343 20.49937,15.400879 c -0.04714,-2.451483 1.537448,-4.869284 3.7002,-6.099609 3.90557,-2.2217612 9.660724,-0.1085985 8.6001,4.899902 -0.739456,3.491877 1.0001,6 4.1001,6 4.2,0 6.006644,-4.605095 3.59912,-9.101073 C 38.756406,7.8460614 32.97594,6.006836 28.497835,6.086521 24.01973,6.166206 20.7253,6.925 18.4003,8.5 Z M 21.1,31 l 6.39991,4.800293 c 3.487943,2.616154 7.252322,5.654577 8.20019,6.799805 2.550418,3.081454 2.76712,7.448218 0.3779,10.368165 l -1.80029,2.200195 -6.3999,-4.800293 C 24.38987,47.752009 20.62848,44.711097 19.67761,43.56836 16.73798,40.035566 17.109552,35.876782 19.29968,33.200196 Z"
    />
  </svg>
